<?xml version="1.0" encoding="UTF-8" standalone="no"?>
<!DOCTYPE svg PUBLIC "-//W3C//DTD SVG 1.1//EN" "http://www.w3.org/Graphics/SVG/1.1/DTD/svg11.dtd">
<svg xmlns="http://www.w3.org/2000/svg" version="1.1" xmlns:xl="http://www.w3.org/1999/xlink" xmlns:dc="http://purl.org/dc/elements/1.1/" viewBox="5.1692914 -96.87795 596.2756 199.4252" width="596.2756" height="199.4252">
  <defs/>
  <metadata> Produced by OmniGraffle 7.12.1 
    <dc:date>2020-01-01 19:05:14 +0000</dc:date>
  </metadata>
  <g id="Canvas_1" fill="none" stroke-dasharray="none" stroke="none" stroke-opacity="1" fill-opacity="1">
    <title>Canvas 1</title>
    <g id="Canvas_1: Layer 1">
      <title>Layer 1</title>
      <g id="Graphic_20">
        <path d="M 5.6692914 -96.37795 L 5.6692914 102.04724 L 600.9449 102.04724 L 600.9449 -96.37795 Z M 107.74802 -34.01575 L 107.74802 -34.01575 C 111.82258 -34.01575 115.70005 -32.262165 118.39088 -29.20252 L 126.86337 -19.568777 C 129.1387 -16.981592 130.3937 -13.654186 130.3937 -10.208808 L 130.3937 -10.208808 L 130.3937 10.342373 L 130.3937 16.29924 L 130.3937 36.85042 C 130.3937 44.67806 124.04815 51.02362 116.2205 51.02362 L 69.44879 51.02362 C 61.62115 51.02362 55.27559 44.67806 55.27559 36.85042 L 55.27559 16.29924 L 55.27559 10.755309 L 55.27559 -9.795872 C 55.27559 -13.24125 56.5306 -16.568656 58.805926 -19.15584 L 67.64157 -29.20252 C 70.33241 -32.262165 74.20988 -34.01575 78.28444 -34.01575 Z M 195.59055 -5.6930604 L 195.59055 -5.693061 L 195.59055 -5.693062 C 195.59055 -9.452028 197.0838 -13.057036 199.74179 -15.715026 L 211.7653 -27.73853 C 214.42328 -30.396522 218.0283 -31.889766 221.78726 -31.889766 L 261.8228 -31.889766 C 265.58176 -31.889766 269.18677 -30.396522 271.84476 -27.73853 L 283.42357 -16.159727 C 286.08156 -13.501736 287.5748 -9.896728 287.5748 -6.1377616 L 287.5748 23.385854 C 287.5748 31.213497 281.22924 37.559054 273.4016 37.559054 L 209.76375 37.559054 C 201.9361 37.559054 195.59055 31.213497 195.59055 23.385854 Z M 531.49606 -17.716537 L 572.5984 -17.716537 L 572.5984 23.385826 L 531.49606 23.385826 Z" fill="white"/>
        <path d="M 5.6692914 -96.37795 L 5.6692914 102.04724 L 600.9449 102.04724 L 600.9449 -96.37795 Z M 107.74802 -34.01575 L 107.74802 -34.01575 C 111.82258 -34.01575 115.70005 -32.262165 118.39088 -29.20252 L 126.86337 -19.568777 C 129.1387 -16.981592 130.3937 -13.654186 130.3937 -10.208808 L 130.3937 -10.208808 L 130.3937 10.342373 L 130.3937 16.29924 L 130.3937 36.85042 C 130.3937 44.67806 124.04815 51.02362 116.2205 51.02362 L 69.44879 51.02362 C 61.62115 51.02362 55.27559 44.67806 55.27559 36.85042 L 55.27559 16.29924 L 55.27559 10.755309 L 55.27559 -9.795872 C 55.27559 -13.24125 56.5306 -16.568656 58.805926 -19.15584 L 67.64157 -29.20252 C 70.33241 -32.262165 74.20988 -34.01575 78.28444 -34.01575 Z M 195.59055 -5.6930604 L 195.59055 -5.693061 L 195.59055 -5.693062 C 195.59055 -9.452028 197.0838 -13.057036 199.74179 -15.715026 L 211.7653 -27.73853 C 214.42328 -30.396522 218.0283 -31.889766 221.78726 -31.889766 L 261.8228 -31.889766 C 265.58176 -31.889766 269.18677 -30.396522 271.84476 -27.73853 L 283.42357 -16.159727 C 286.08156 -13.501736 287.5748 -9.896728 287.5748 -6.1377616 L 287.5748 23.385854 C 287.5748 31.213497 281.22924 37.559054 273.4016 37.559054 L 209.76375 37.559054 C 201.9361 37.559054 195.59055 31.213497 195.59055 23.385854 Z M 531.49606 -17.716537 L 572.5984 -17.716537 L 572.5984 23.385826 L 531.49606 23.385826 Z" stroke="black" stroke-linecap="round" stroke-linejoin="round" stroke-width="1"/>
      </g>
      <g id="Graphic_21">
        <circle cx="21.259843" cy="-83.62205" r="4.2519754423433" fill="white"/>
        <circle cx="21.259843" cy="-83.62205" r="4.2519754423433" stroke="black" stroke-linecap="round" stroke-linejoin="round" stroke-width="1"/>
      </g>
      <g id="Graphic_22">
        <circle cx="156.89764" cy="-83.62205" r="4.2519754423433" fill="white"/>
        <circle cx="156.89764" cy="-83.62205" r="4.2519754423433" stroke="black" stroke-linecap="round" stroke-linejoin="round" stroke-width="1"/>
      </g>
      <g id="Graphic_23">
        <circle cx="327.5433" cy="-83.62205" r="4.25197544234332" fill="white"/>
        <circle cx="327.5433" cy="-83.62205" r="4.25197544234332" stroke="black" stroke-linecap="round" stroke-linejoin="round" stroke-width="1"/>
      </g>
      <g id="Graphic_24">
        <circle cx="582.7323" cy="-83.62205" r="4.25197544234326" fill="white"/>
        <circle cx="582.7323" cy="-83.62205" r="4.25197544234326" stroke="black" stroke-linecap="round" stroke-linejoin="round" stroke-width="1"/>
      </g>
      <g id="Graphic_28">
        <circle cx="21.259843" cy="87.44882" r="4.2519754423433" fill="white"/>
        <circle cx="21.259843" cy="87.44882" r="4.2519754423433" stroke="black" stroke-linecap="round" stroke-linejoin="round" stroke-width="1"/>
      </g>
      <g id="Graphic_27">
        <circle cx="156.89764" cy="87.44882" r="4.2519754423433" fill="white"/>
        <circle cx="156.89764" cy="87.44882" r="4.2519754423433" stroke="black" stroke-linecap="round" stroke-linejoin="round" stroke-width="1"/>
      </g>
      <g id="Graphic_26">
        <circle cx="327.5433" cy="87.44882" r="4.25197544234332" fill="white"/>
        <circle cx="327.5433" cy="87.44882" r="4.25197544234332" stroke="black" stroke-linecap="round" stroke-linejoin="round" stroke-width="1"/>
      </g>
      <g id="Graphic_25">
        <circle cx="582.7323" cy="87.44882" r="4.25197544234326" fill="white"/>
        <circle cx="582.7323" cy="87.44882" r="4.25197544234326" stroke="black" stroke-linecap="round" stroke-linejoin="round" stroke-width="1"/>
      </g>
    </g>
  </g>
</svg>
